<?xml version="1.0" encoding="utf-8"?>
<!-- Generator: Adobe Illustrator 24.3.0, SVG Export Plug-In . SVG Version: 6.00 Build 0)  -->
<svg version="1.1" id="Layer_1" xmlns="http://www.w3.org/2000/svg" xmlns:xlink="http://www.w3.org/1999/xlink" x="0px" y="0px"
	 viewBox="0 0 221 41" style="enable-background:new 0 0 221 41;" xml:space="preserve">
<style type="text/css">
	.st0{fill:#0C0F1A;}
	.st1{fill:#5033C1;}
</style>
<g>
	<g>
		<g>
			<g>
				<path class="st0" d="M66.5,12.7v3.1h-5.1v16h-3.8v-16h-5.1v-3.1H66.5z"/>
				<path class="st0" d="M73.8,17.1c0.8-0.5,1.7-0.7,2.7-0.7v4h-1c-1.2,0-2.1,0.3-2.7,0.8c-0.6,0.6-0.9,1.6-0.9,3v7.6H68V16.6h3.8
					V19C72.4,18.2,73,17.6,73.8,17.1z"/>
				<path class="st0" d="M79.6,20.1c0.6-1.2,1.4-2.1,2.5-2.7c1-0.6,2.2-1,3.5-1c1.1,0,2.1,0.2,3,0.7c0.8,0.5,1.5,1,2,1.7v-2.2h3.9
					v15.2h-3.9v-2.2c-0.5,0.7-1.2,1.3-2,1.8c-0.9,0.5-1.9,0.7-3,0.7c-1.3,0-2.4-0.3-3.5-1c-1-0.7-1.9-1.6-2.5-2.8
					c-0.6-1.2-0.9-2.6-0.9-4.1C78.7,22.6,79,21.3,79.6,20.1z M90,21.8c-0.4-0.7-0.9-1.2-1.5-1.5c-0.6-0.4-1.3-0.5-2-0.5
					c-0.7,0-1.4,0.2-2,0.5c-0.6,0.3-1.1,0.9-1.5,1.5c-0.4,0.7-0.6,1.5-0.6,2.4c0,0.9,0.2,1.7,0.6,2.4c0.4,0.7,0.9,1.2,1.5,1.6
					c0.6,0.4,1.3,0.5,2,0.5c0.7,0,1.4-0.2,2-0.5c0.6-0.4,1.1-0.9,1.5-1.5c0.4-0.7,0.5-1.5,0.5-2.4C90.6,23.3,90.4,22.5,90,21.8z"/>
				<path class="st0" d="M98.7,20.1c0.6-1.2,1.4-2.1,2.5-2.7c1.1-0.6,2.2-1,3.5-1c1,0,1.9,0.2,2.8,0.6c0.9,0.4,1.6,1,2.1,1.7v-7.2
					h3.9v20.3h-3.9v-2.2c-0.5,0.7-1.1,1.4-2,1.8c-0.9,0.5-1.9,0.7-3,0.7c-1.3,0-2.4-0.3-3.5-1c-1.1-0.7-1.9-1.6-2.5-2.8
					c-0.6-1.2-0.9-2.6-0.9-4.1C97.8,22.6,98.1,21.3,98.7,20.1z M109.2,21.8c-0.4-0.7-0.9-1.2-1.5-1.5c-0.6-0.4-1.3-0.5-2-0.5
					s-1.4,0.2-2,0.5c-0.6,0.3-1.1,0.9-1.5,1.5c-0.4,0.7-0.6,1.5-0.6,2.4c0,0.9,0.2,1.7,0.6,2.4c0.4,0.7,0.9,1.2,1.5,1.6
					c0.6,0.4,1.3,0.5,2,0.5c0.7,0,1.4-0.2,2-0.5c0.6-0.4,1.1-0.9,1.5-1.5c0.4-0.7,0.5-1.5,0.5-2.4C109.7,23.3,109.5,22.5,109.2,21.8
					z"/>
				<path class="st0" d="M131.9,25.4h-11.1c0.1,1.1,0.5,2,1.2,2.6c0.7,0.6,1.5,0.9,2.5,0.9c1.4,0,2.4-0.6,3-1.8h4.1
					c-0.4,1.5-1.3,2.7-2.5,3.6c-1.2,0.9-2.8,1.4-4.6,1.4c-1.5,0-2.8-0.3-3.9-1c-1.2-0.6-2.1-1.6-2.7-2.8c-0.6-1.2-1-2.6-1-4.1
					c0-1.6,0.3-2.9,1-4.1c0.6-1.2,1.5-2.1,2.7-2.7c1.2-0.6,2.5-1,4-1c1.4,0,2.7,0.3,3.9,0.9c1.1,0.6,2,1.5,2.7,2.6
					c0.6,1.1,0.9,2.5,0.9,3.9C132,24.4,131.9,24.9,131.9,25.4z M128,22.8c0-1-0.4-1.8-1.1-2.4c-0.7-0.6-1.5-0.9-2.5-0.9
					c-0.9,0-1.7,0.3-2.4,0.9c-0.6,0.6-1,1.4-1.2,2.4H128z"/>
				<path class="st0" d="M158.7,18.1c1.1,1.1,1.7,2.7,1.7,4.8v8.9h-3.8v-8.4c0-1.2-0.3-2.1-0.9-2.7c-0.6-0.6-1.4-0.9-2.5-0.9
					c-1,0-1.9,0.3-2.5,0.9c-0.6,0.6-0.9,1.5-0.9,2.7v8.4h-3.8v-8.4c0-1.2-0.3-2.1-0.9-2.7c-0.6-0.6-1.4-0.9-2.5-0.9
					c-1.1,0-1.9,0.3-2.5,0.9c-0.6,0.6-0.9,1.5-0.9,2.7v8.4h-3.8V16.6h3.8v1.8c0.5-0.6,1.1-1.1,1.9-1.5c0.8-0.4,1.6-0.5,2.6-0.5
					c1.2,0,2.2,0.3,3.2,0.8c0.9,0.5,1.7,1.2,2.2,2.1c0.5-0.9,1.2-1.6,2.1-2.1c0.9-0.5,2-0.8,3.1-0.8C156,16.4,157.5,17,158.7,18.1z"
					/>
				<path class="st0" d="M164.5,20.1c0.6-1.2,1.4-2.1,2.5-2.7c1-0.6,2.2-1,3.5-1c1.1,0,2.1,0.2,3,0.7c0.8,0.5,1.5,1,2,1.7v-2.2h3.9
					v15.2h-3.9v-2.2c-0.5,0.7-1.2,1.3-2,1.8c-0.9,0.5-1.9,0.7-3,0.7c-1.3,0-2.4-0.3-3.5-1c-1-0.7-1.9-1.6-2.5-2.8
					c-0.6-1.2-0.9-2.6-0.9-4.1C163.6,22.6,163.9,21.3,164.5,20.1z M175,21.8c-0.4-0.7-0.9-1.2-1.5-1.5c-0.6-0.4-1.3-0.5-2-0.5
					s-1.4,0.2-2,0.5c-0.6,0.3-1.1,0.9-1.5,1.5c-0.4,0.7-0.6,1.5-0.6,2.4c0,0.9,0.2,1.7,0.6,2.4c0.4,0.7,0.9,1.2,1.5,1.6
					c0.6,0.4,1.3,0.5,2,0.5c0.7,0,1.4-0.2,2-0.5c0.6-0.4,1.1-0.9,1.5-1.5c0.4-0.7,0.5-1.5,0.5-2.4C175.5,23.3,175.3,22.5,175,21.8z"
					/>
				<path class="st0" d="M188.1,19.8v7.3c0,0.5,0.1,0.9,0.4,1.1c0.2,0.2,0.7,0.3,1.2,0.3h1.8v3.2h-2.4c-3.2,0-4.8-1.6-4.8-4.7v-7.3
					h-1.8v-3.1h1.8v-3.8h3.9v3.8h3.4v3.1H188.1z"/>
				<path class="st0" d="M208.8,25.4h-11.1c0.1,1.1,0.5,2,1.2,2.6c0.7,0.6,1.5,0.9,2.5,0.9c1.4,0,2.4-0.6,3-1.8h4.1
					c-0.4,1.5-1.3,2.7-2.5,3.6c-1.2,0.9-2.8,1.4-4.6,1.4c-1.5,0-2.8-0.3-3.9-1c-1.2-0.6-2.1-1.6-2.7-2.8c-0.6-1.2-1-2.6-1-4.1
					c0-1.6,0.3-2.9,1-4.1c0.6-1.2,1.5-2.1,2.7-2.7c1.2-0.6,2.5-1,4-1c1.4,0,2.7,0.3,3.9,0.9c1.1,0.6,2,1.5,2.7,2.6
					c0.6,1.1,0.9,2.5,0.9,3.9C208.9,24.4,208.9,24.9,208.8,25.4z M205,22.8c0-1-0.4-1.8-1.1-2.4c-0.7-0.6-1.5-0.9-2.5-0.9
					c-0.9,0-1.7,0.3-2.4,0.9c-0.6,0.6-1,1.4-1.2,2.4H205z"/>
			</g>
		</g>
		<g>
			<path class="st1" d="M17.6,7.5c-0.9-0.9-2.5-0.9-3.4,0c-0.9,0.9-0.9,2.5,0,3.4l22.5,22.5c0.5,0.5,1.1,0.7,1.7,0.7
				c0.6,0,1.2-0.2,1.7-0.7c0.9-0.9,0.9-2.5,0-3.4L17.6,7.5z"/>
			<path class="st1" d="M41.5,18.2L29.4,6.1c-0.9-0.9-2.5-0.9-3.4,0c-0.9,0.9-0.9,2.5,0,3.4l12.1,12.1c0.5,0.5,1.1,0.7,1.7,0.7
				c0.6,0,1.2-0.2,1.7-0.7C42.5,20.6,42.5,19.1,41.5,18.2z"/>
			<path class="st1" d="M16.2,19.4c-0.9-0.9-2.5-0.9-3.4,0c-0.9,0.9-0.9,2.5,0,3.4l12.1,12.1c0.5,0.5,1.1,0.7,1.7,0.7
				s1.2-0.2,1.7-0.7c0.9-0.9,0.9-2.5,0-3.4L16.2,19.4z"/>
		</g>
	</g>
</g>
</svg>
